<svg width="32" height="32" viewBox="0 0 32 32" fill="none" xmlns="http://www.w3.org/2000/svg">
<path d="M25.3333 8.72727H24.24L21.9733 1.92C21.7857 1.3587 21.4448 0.873674 20.9965 0.530351C20.5483 0.187028 20.0143 0.00192236 19.4667 0H17.3333C16.6 0 16 0.654545 16 1.45455C16 2.25455 16.6 2.90909 17.3333 2.90909H19.4667L21.4133 8.72727H15L14.52 7.27273H14.64C15.3733 7.27273 15.9733 6.61818 15.9733 5.81818C15.9733 5.01818 15.3733 4.36364 14.64 4.36364H10.6667C9.93333 4.36364 9.33333 5.01818 9.33333 5.81818C9.33333 6.61818 9.93333 7.27273 10.6667 7.27273H11.6667L14.0933 14.5455H13.2C12.6133 11.3018 10.12 8.90182 7 8.74182C3.26667 8.53818 0 11.9273 0 16C0 20.0727 2.93333 23.2727 6.66667 23.2727C9.94667 23.2727 12.6 20.8145 13.2 17.4545H18.8C19.3867 20.6982 21.88 23.0982 25 23.2582C28.7333 23.4473 32 20.0727 32 15.9855C32 11.9273 29.0667 8.72727 25.3333 8.72727ZM8 17.4545H10.4267C9.86667 19.2436 8.29333 20.48 6.4 20.3491C4.41333 20.2182 2.76 18.3855 2.66667 16.2036C2.57333 13.6582 4.36 11.6364 6.66667 11.6364C8.44 11.6364 9.89333 12.8436 10.4267 14.5455H8C7.26667 14.5455 6.66667 15.2 6.66667 16C6.66667 16.8 7.26667 17.4545 8 17.4545ZM18.8 14.5455H16.9333L15.96 11.6364H20C19.4133 12.48 18.9867 13.4545 18.8 14.5455ZM25.1733 20.3636C23.12 20.2764 21.3867 18.3709 21.3333 16.1164C21.3067 14.72 21.8533 13.4982 22.7333 12.6836L23.56 15.1564C23.8133 15.9127 24.5733 16.3055 25.2667 16.0291C25.96 15.7527 26.32 14.9236 26.0667 14.1673L25.2267 11.6509L25.24 11.6364C25.7746 11.6165 26.3073 11.715 26.806 11.9259C27.3047 12.1369 27.7591 12.4559 28.1416 12.8637C28.5242 13.2715 28.827 13.7597 29.0319 14.2987C29.2367 14.8378 29.3392 15.4165 29.3333 16C29.3333 18.5018 27.4933 20.4509 25.1733 20.3636ZM14.6667 27.6364H9.33333L17.3333 32V29.0909H22.6667L14.6667 24.7273V27.6364Z" fill="#FFBB00"/>
</svg>
