<svg width="32" height="29" viewBox="0 0 32 29" fill="none" xmlns="http://www.w3.org/2000/svg">
<path d="M16 0.475098C11.6533 0.475098 11.1107 0.492602 9.404 0.559117C7.7 0.629133 6.54 0.863686 5.52 1.21026C4.468 1.56735 3.57467 2.04695 2.68533 2.8253C1.796 3.60365 1.24667 4.38432 0.84 5.3062C0.444 6.1989 0.174667 7.21413 0.096 8.70547C0.016 10.1992 0 10.6741 0 14.4783C0 18.2825 0.02 18.7574 0.096 20.2511C0.176 21.7413 0.444 22.7577 0.84 23.6504C1.248 24.5699 1.796 25.3529 2.68533 26.1313C3.57467 26.9085 4.46667 27.3904 5.52 27.7463C6.54133 28.0917 7.70133 28.3286 9.404 28.3974C11.1107 28.4675 11.6533 28.4815 16 28.4815C20.3467 28.4815 20.8893 28.464 22.596 28.3974C24.2987 28.3274 25.46 28.0917 26.48 27.7463C27.5307 27.3892 28.4253 26.9085 29.3147 26.1313C30.2027 25.3529 30.7533 24.5734 31.16 23.6504C31.5547 22.7577 31.8253 21.7413 31.904 20.2511C31.984 18.7574 32 18.2825 32 14.4783C32 10.6741 31.98 10.1992 31.904 8.70547C31.824 7.21529 31.5547 6.19773 31.16 5.3062C30.752 4.38549 30.2027 3.60365 29.3147 2.8253C28.4253 2.04695 27.5347 1.56618 26.48 1.21026C25.46 0.863686 24.2987 0.627966 22.596 0.559117C20.8893 0.489101 20.3467 0.475098 16 0.475098ZM16 2.99567C20.2707 2.99567 20.78 3.01434 22.4667 3.07853C24.0267 3.1427 24.8733 3.36909 25.436 3.5628C26.1853 3.81602 26.716 4.11943 27.2787 4.60837C27.8373 5.09848 28.184 5.56409 28.4733 6.2199C28.692 6.71235 28.9533 7.45335 29.024 8.81866C29.1 10.296 29.1173 10.7394 29.1173 14.4783C29.1173 18.2171 29.0973 18.6617 29.0187 20.1379C28.9373 21.5032 28.6773 22.2442 28.4573 22.7367C28.1587 23.3924 27.8187 23.8569 27.2587 24.3494C26.7 24.8383 26.16 25.1417 25.4187 25.3949C24.8587 25.5863 23.9987 25.815 22.4387 25.8769C20.74 25.9434 20.24 25.9585 15.96 25.9585C11.6787 25.9585 11.1787 25.941 9.48133 25.8722C7.92 25.801 7.06 25.5734 6.5 25.3809C5.74133 25.1196 5.22 24.822 4.66133 24.3319C4.1 23.8429 3.74133 23.3703 3.46133 22.7215C3.24133 22.2314 2.98267 21.4787 2.90133 20.1134C2.84133 18.6431 2.82 18.1891 2.82 14.4608C2.82 10.7313 2.84133 10.2762 2.90133 8.78832C2.98267 7.42301 3.24133 6.67151 3.46133 6.1814C3.74133 5.51624 4.1 5.06114 4.66133 4.56986C5.22 4.08092 5.74133 3.76585 6.5 3.52195C7.06 3.32825 7.90133 3.10069 9.46133 3.03068C11.1613 2.97817 11.6613 2.96066 15.94 2.96066L16 2.99567ZM16 7.28765C11.46 7.28765 7.784 10.5084 7.784 14.4783C7.784 18.4517 11.464 21.6689 16 21.6689C20.54 21.6689 24.216 18.4482 24.216 14.4783C24.216 10.5049 20.536 7.28765 16 7.28765ZM16 19.146C13.0533 19.146 10.6667 17.0572 10.6667 14.4783C10.6667 11.8993 13.0533 9.81058 16 9.81058C18.9467 9.81058 21.3333 11.8993 21.3333 14.4783C21.3333 17.0572 18.9467 19.146 16 19.146ZM26.4613 7.00408C26.4613 7.93179 25.6 8.68446 24.5413 8.68446C23.4813 8.68446 22.6213 7.93063 22.6213 7.00408C22.6213 6.07754 23.4827 5.32486 24.5413 5.32486C25.5987 5.3237 26.4613 6.07754 26.4613 7.00408Z" fill="white"/>
</svg>
