<svg width="32" height="32" viewBox="0 0 32 32" fill="none" xmlns="http://www.w3.org/2000/svg">
<path d="M16 10.1818C12.7855 10.1818 10.1818 12.7855 10.1818 16C10.1818 19.2145 12.7855 21.8182 16 21.8182C19.2145 21.8182 21.8182 19.2145 21.8182 16C21.8182 12.7855 19.2145 10.1818 16 10.1818ZM29.0036 14.5455C28.6742 11.5958 27.3515 8.84587 25.2528 6.74719C23.1541 4.64851 20.4042 3.32584 17.4545 2.99636V1.45455C17.4545 0.654545 16.8 0 16 0C15.2 0 14.5455 0.654545 14.5455 1.45455V2.99636C11.5958 3.32584 8.84587 4.64851 6.74719 6.74719C4.64851 8.84587 3.32584 11.5958 2.99636 14.5455H1.45455C0.654545 14.5455 0 15.2 0 16C0 16.8 0.654545 17.4545 1.45455 17.4545H2.99636C3.32584 20.4042 4.64851 23.1541 6.74719 25.2528C8.84587 27.3515 11.5958 28.6742 14.5455 29.0036V30.5455C14.5455 31.3455 15.2 32 16 32C16.8 32 17.4545 31.3455 17.4545 30.5455V29.0036C20.4042 28.6742 23.1541 27.3515 25.2528 25.2528C27.3515 23.1541 28.6742 20.4042 29.0036 17.4545H30.5455C31.3455 17.4545 32 16.8 32 16C32 15.2 31.3455 14.5455 30.5455 14.5455H29.0036ZM16 26.1818C10.3709 26.1818 5.81818 21.6291 5.81818 16C5.81818 10.3709 10.3709 5.81818 16 5.81818C21.6291 5.81818 26.1818 10.3709 26.1818 16C26.1818 21.6291 21.6291 26.1818 16 26.1818Z" fill="#FFBB00"/>
</svg>
