<svg width="32" height="32" viewBox="0 0 32 32" fill="none" xmlns="http://www.w3.org/2000/svg">
<path d="M24 25.5731C21.84 25.5731 20.48 26.3789 19.28 27.1079C18.24 27.741 17.392 28.259 16 28.259C14.56 28.259 13.76 27.7794 12.72 27.1079C11.52 26.3789 10.208 25.5731 8 25.5731C5.792 25.5731 4.48 26.3789 3.28 27.1079C2.592 27.53 1.984 27.8945 1.248 28.1055C0.528 28.2974 0 28.988 0 29.8513V30.0432C0 31.1942 0.896 32.0192 1.824 31.789C3.008 31.5012 3.904 30.964 4.72 30.4652C5.76 29.8321 6.592 29.3141 8 29.3141C9.408 29.3141 10.24 29.7938 11.28 30.4652C12.48 31.1942 13.792 32 16 32C18.208 32 19.52 31.1942 20.72 30.4652C21.76 29.8321 22.608 29.3141 24 29.3141C25.44 29.3141 26.24 29.7938 27.28 30.4652C28.112 30.964 29.008 31.5204 30.208 31.8082C30.4242 31.8587 30.6469 31.8518 30.8606 31.7878C31.0743 31.7238 31.2736 31.6043 31.4445 31.4378C31.6155 31.2713 31.7538 31.0618 31.8498 30.8241C31.9458 30.5864 31.9971 30.3264 32 30.0623V29.8897C32 29.0072 31.456 28.3165 30.736 28.1247C30 27.9329 29.408 27.5683 28.72 27.1271C27.52 26.3789 26.16 25.5731 24 25.5731ZM24 17.036C21.84 17.036 20.48 17.8609 19.28 18.5707C18.24 19.1847 17.392 19.7218 16 19.7218C14.56 19.7218 13.76 19.2422 12.72 18.5707C11.52 17.8417 10.208 17.036 8 17.036C5.792 17.036 4.48 17.8609 3.28 18.5707C2.592 18.9736 1.984 19.3573 1.232 19.5683C0.528 19.7602 0 20.4508 0 21.3141V21.506C9.14364e-05 21.7712 0.0494759 22.033 0.144561 22.2724C0.239646 22.5118 0.378041 22.7228 0.549678 22.89C0.721315 23.0572 0.921879 23.1764 1.13678 23.239C1.35168 23.3016 1.57551 23.306 1.792 23.2518C2.992 22.964 3.888 22.4077 4.72 21.9281C5.76 21.2566 6.56 20.777 8 20.777C9.44 20.777 10.24 21.2566 11.28 21.9281C12.48 22.6571 13.792 23.4628 16 23.4628C18.208 23.4628 19.52 22.6379 20.72 21.9281C21.76 21.2566 22.56 20.777 24 20.777C25.44 20.777 26.24 21.2566 27.28 21.9281C28.112 22.4269 29.008 22.9832 30.208 23.271C30.4255 23.3219 30.6496 23.3145 30.8644 23.2494C31.0793 23.1843 31.2794 23.0631 31.4507 22.8945C31.6219 22.7259 31.7599 22.514 31.8549 22.2739C31.9498 22.0339 31.9994 21.7717 32 21.506V21.3333C32 20.4508 31.456 19.7602 30.736 19.5683C30 19.3765 29.408 19.012 28.72 18.5707C27.52 17.8417 26.16 17.036 24 17.036ZM28.72 1.53477C27.52 0.805755 26.192 0 24 0C21.808 0 20.48 0.805755 19.28 1.53477C18.24 2.14868 17.392 2.68585 16 2.68585C14.56 2.68585 13.76 2.20623 12.72 1.53477C11.52 0.82494 10.208 0 8 0C5.792 0 4.48 0.805755 3.28 1.53477C2.592 1.95683 1.984 2.32134 1.248 2.53237C0.528 2.72422 0 3.41487 0 4.27818V4.41247C0 5.56355 0.864 6.40767 1.792 6.17746C2.992 5.88969 3.888 5.33333 4.72 4.85372C5.76 4.22062 6.592 3.70264 8 3.70264C9.408 3.70264 10.24 4.18225 11.28 4.85372C12.48 5.58273 13.792 6.38849 16 6.38849C18.208 6.38849 19.52 5.56355 20.72 4.85372C21.76 4.23981 22.608 3.70264 24 3.70264C25.44 3.70264 26.24 4.18225 27.28 4.85372C28.112 5.35252 29.008 5.90887 30.208 6.19664C30.4255 6.24752 30.6496 6.24015 30.8644 6.17507C31.0793 6.10998 31.2794 5.98879 31.4507 5.82016C31.6219 5.65153 31.7599 5.43962 31.8549 5.19959C31.9498 4.95955 31.9994 4.69733 32 4.43165V4.25899C32 3.3765 31.456 2.68585 30.736 2.494C30 2.30216 29.408 1.95683 28.72 1.53477ZM24 8.4988C21.84 8.4988 20.48 9.32374 19.28 10.0336C18.24 10.705 17.44 11.1847 16 11.1847C14.56 11.1847 13.76 10.705 12.72 10.0336C11.52 9.30456 10.208 8.4988 8 8.4988C5.792 8.4988 4.48 9.32374 3.28 10.0336C2.592 10.4748 2 10.8393 1.264 11.0312C0.544 11.223 0 11.9137 0 12.7962V12.9688C9.14364e-05 13.234 0.0494759 13.4958 0.144561 13.7352C0.239646 13.9746 0.378041 14.1856 0.549678 14.3528C0.721315 14.52 0.921879 14.6393 1.13678 14.7018C1.35168 14.7644 1.57551 14.7688 1.792 14.7146C2.992 14.4269 3.888 13.8705 4.72 13.3909C5.76 12.777 6.608 12.2398 8 12.2398C9.392 12.2398 10.24 12.7194 11.28 13.3909C12.48 14.1199 13.792 14.9257 16 14.9257C18.208 14.9257 19.52 14.1007 20.72 13.3909C21.76 12.777 22.608 12.2398 24 12.2398C25.44 12.2398 26.24 12.7194 27.28 13.3909C28.112 13.8897 29.008 14.446 30.208 14.7338C30.4242 14.7844 30.6469 14.7775 30.8606 14.7135C31.0743 14.6495 31.2736 14.53 31.4445 14.3635C31.6155 14.1969 31.7538 13.9874 31.8498 13.7498C31.9458 13.5121 31.9971 13.2521 32 12.988V12.8153C32 11.9329 31.456 11.2422 30.736 11.0504C30 10.8585 29.408 10.494 28.72 10.0528C27.52 9.30456 26.16 8.4988 24 8.4988Z" fill="#FFBB00"/>
</svg>
