<svg width="14" height="14" viewBox="0 0 14 14" fill="none" xmlns="http://www.w3.org/2000/svg">
<path d="M7.00038 0.333618C3.33398 0.333618 0.333984 3.33362 0.333984 7.00002C0.333984 10.6664 3.33398 13.6664 7.00038 13.6664C10.6668 13.6664 13.6668 10.6664 13.6668 7.00002C13.6668 3.33362 10.6668 0.333618 7.00038 0.333618ZM9.36679 9.53362L6.64678 7.86002C6.54885 7.80153 6.46784 7.71854 6.41173 7.61922C6.35562 7.5199 6.32635 7.40769 6.32678 7.29362V4.16642C6.33029 4.03367 6.38508 3.90745 6.47964 3.81422C6.57421 3.721 6.7012 3.66803 6.83398 3.66642C6.96627 3.66746 7.09284 3.72048 7.18638 3.81402C7.27992 3.90756 7.33294 4.03413 7.33398 4.16642V7.13282L9.89398 8.67282C10.134 8.82002 10.214 9.13282 10.0668 9.37362C9.99442 9.48678 9.88048 9.56697 9.74953 9.5969C9.61859 9.62683 9.48113 9.6041 9.36679 9.53362Z" fill="#FFBB00"/>
</svg>
