<svg width="32" height="32" viewBox="0 0 32 32" fill="none" xmlns="http://www.w3.org/2000/svg">
<path d="M28 10.6667H26V7.61905C26 3.41333 21.52 0 16 0C10.48 0 6 3.41333 6 7.61905V10.6667H4C1.8 10.6667 0 12.0381 0 13.7143V28.9524C0 30.6286 1.8 32 4 32H28C30.2 32 32 30.6286 32 28.9524V13.7143C32 12.0381 30.2 10.6667 28 10.6667ZM16 24.381C13.8 24.381 12 23.0095 12 21.3333C12 19.6571 13.8 18.2857 16 18.2857C18.2 18.2857 20 19.6571 20 21.3333C20 23.0095 18.2 24.381 16 24.381ZM10 10.6667V7.61905C10 5.08952 12.68 3.04762 16 3.04762C19.32 3.04762 22 5.08952 22 7.61905V10.6667H10Z" fill="#FFBB00"/>
</svg>
