<svg width="18" height="10" viewBox="0 0 18 10" fill="none" xmlns="http://www.w3.org/2000/svg">
<path fill-rule="evenodd" clip-rule="evenodd" d="M12.0822 0.309845C12.4633 -0.0898214 13.0963 -0.104821 13.496 0.276342L17.6902 4.27634C17.888 4.46506 18 4.72657 18 5C18 5.27344 17.888 5.53495 17.6902 5.72366L13.496 9.72366C13.0963 10.1048 12.4633 10.0898 12.0822 9.69016C11.701 9.29049 11.716 8.65751 12.1157 8.27634L14.5025 6H1C0.447715 6 0 5.55229 0 5C0 4.44772 0.447715 4 1 4H14.5025L12.1157 1.72366C11.716 1.3425 11.701 0.709511 12.0822 0.309845Z" fill="#332200"/>
</svg>
