<svg width="32" height="32" viewBox="0 0 32 32" fill="none" xmlns="http://www.w3.org/2000/svg">
<path d="M4.11002 8.04574C1.48536 10.6718 0.00754325 14.231 2.87972e-05 17.9445C-0.00748566 21.658 1.45591 25.2232 4.06993 27.8598C7.01692 21.0412 12.2694 15.3457 18.825 11.9564C13.1667 16.7458 9.3471 23.3527 8.0193 30.6475C13.2317 33.1142 19.6469 32.2117 23.9571 27.9C29.9514 21.9036 31.6354 5.55895 31.9962 1.06668C32.0088 0.923941 31.9899 0.780181 31.941 0.645517C31.892 0.510853 31.8142 0.388557 31.7129 0.287234C31.6116 0.185911 31.4893 0.108023 31.3547 0.0590509C31.2201 0.0100787 31.0764 -0.00878782 30.9337 0.00377854C26.443 0.364764 10.1043 2.04936 4.11002 8.04574Z" fill="#FFBB00"/>
</svg>
