<svg width="30" height="30" viewBox="0 0 30 30" fill="none" xmlns="http://www.w3.org/2000/svg">
<path d="M26.1921 11.2726C26.0441 11.5456 25.9565 11.8625 25.9381 12.1913C25.9196 12.5202 25.971 12.8492 26.0871 13.1453C26.4591 14.2296 26.7216 15.3683 26.8671 16.535C27.2533 19.5503 26.8921 22.641 25.8321 25.393C25.7034 25.6949 25.5109 25.947 25.2755 26.1219C25.0402 26.2969 24.771 26.3881 24.4971 26.3856H5.52153C5.24608 26.3863 4.97579 26.2923 4.7403 26.1139C4.50481 25.9355 4.3132 25.6796 4.1865 25.3743C3.22629 22.9424 2.81267 20.2308 2.98974 17.5286C3.1668 14.8263 3.92792 12.2347 5.19195 10.03C6.45597 7.82529 8.17552 6.09015 10.1673 5.00955C12.1591 3.92894 14.3484 3.54338 16.5018 3.89397C17.5914 4.05386 18.6572 4.407 19.6669 4.94271C19.9041 5.0876 20.1677 5.15179 20.4311 5.12877C20.6944 5.10575 20.9483 4.99635 21.167 4.81161C21.3948 4.62423 21.5774 4.36283 21.6951 4.05554C21.8127 3.74825 21.8611 3.40672 21.8348 3.06769C21.8086 2.72866 21.7088 2.40499 21.5462 2.1315C21.3836 1.85801 21.1643 1.64507 20.912 1.51559C18.0142 -0.0356799 14.7985 -0.407549 11.7218 0.452807C8.6451 1.31316 5.86376 3.362 3.77287 6.30827C1.68198 9.25455 0.387864 12.9485 0.0743539 16.8653C-0.239156 20.7821 0.443879 24.7227 2.02643 28.1272C2.28821 28.6933 2.66409 29.164 3.11671 29.4926C3.56934 29.8211 4.08295 29.996 4.60651 30H25.3821C25.9107 30.0026 26.4305 29.8308 26.8889 29.5019C27.3472 29.173 27.7278 28.6988 27.9922 28.1272C29.1508 25.6205 29.8282 22.8125 29.9714 19.9239C30.1145 17.0353 29.7195 14.1445 28.8172 11.4786C28.7029 11.1747 28.5253 10.9148 28.303 10.7261C28.0807 10.5373 27.8218 10.4266 27.5535 10.4055C27.2852 10.3845 27.0172 10.4538 26.7777 10.6064C26.5382 10.7589 26.336 10.989 26.1921 11.2726Z" fill="#FFBB00"/>
<path d="M12.8869 16.1231C12.3239 16.8259 12.0077 17.7791 12.0077 18.773C12.0077 19.2651 12.0853 19.7524 12.2362 20.2071C12.387 20.6618 12.6081 21.0749 12.8869 21.4229C13.1656 21.7709 13.4965 22.047 13.8607 22.2353C14.2249 22.4236 14.6152 22.5206 15.0094 22.5206C15.8055 22.5206 16.569 22.1257 17.132 21.4229L25.6222 5.52335L12.8869 16.1231Z" fill="#FFBB00"/>
</svg>
