<svg width="32" height="21" viewBox="0 0 32 21" fill="none" xmlns="http://www.w3.org/2000/svg">
<path d="M31.3307 3.6932C31.1499 3.09722 30.7934 2.55326 30.2968 2.11581C29.8003 1.67836 29.1811 1.36277 28.5013 1.20063C26.0067 0.611328 16 0.611328 16 0.611328C16 0.611328 5.99333 0.611328 3.49733 1.20063C2.81788 1.36305 2.19906 1.67876 1.70277 2.11618C1.20648 2.5536 0.850122 3.09741 0.669333 3.6932C0 5.8917 0 10.4777 0 10.4777C0 10.4777 0 15.0638 0.669333 17.2623C0.850115 17.8583 1.20663 18.4022 1.70319 18.8397C2.19974 19.2771 2.8189 19.5927 3.49867 19.7549C5.99333 20.3441 16 20.3441 16 20.3441C16 20.3441 26.0067 20.3441 28.5027 19.7549C29.1825 19.5929 29.8017 19.2773 30.2983 18.8398C30.7949 18.4023 31.1513 17.8583 31.332 17.2623C32 15.0638 32 10.4777 32 10.4777C32 10.4777 32 5.8917 31.3307 3.6932ZM12.7267 14.6413V6.31416L21.0907 10.4777L12.7267 14.6413Z" fill="white"/>
</svg>
