<svg width="53" height="54" viewBox="0 0 53 54" fill="none" xmlns="http://www.w3.org/2000/svg">
<path d="M15.1278 49.0692C14.0233 49.0756 13.133 49.9762 13.1395 51.0808C13.1459 52.1853 14.0465 53.0756 15.151 53.0691C16.2556 53.0627 17.1458 52.1621 17.1394 51.0576C17.133 49.953 16.2324 49.0628 15.1278 49.0692Z" fill="#808080" fill-opacity="0.3"/>
<path d="M3.12802 49.1388C2.02347 49.1453 1.13325 50.0459 1.13966 51.1504C1.14607 52.255 2.04668 53.1452 3.15123 53.1388C4.25578 53.1324 5.146 52.2318 5.13959 51.1272C5.13318 50.0227 4.23257 49.1324 3.12802 49.1388Z" fill="#808080" fill-opacity="0.3"/>
<path d="M38.9881 24.9303C37.8836 24.9368 36.9934 25.8374 36.9998 26.9419C37.0062 28.0465 37.9068 28.9367 39.0114 28.9303C40.1159 28.9239 41.0061 28.0233 40.9997 26.9187C40.9933 25.8142 40.0927 24.9239 38.9881 24.9303Z" fill="#808080" fill-opacity="0.3"/>
<path d="M26.9883 25C25.8838 25.0064 24.9936 25.907 25 27.0116C25.0064 28.1161 25.907 29.0063 27.0116 28.9999C28.1161 28.9935 29.0063 28.0929 28.9999 26.9883C28.9935 25.8838 28.0929 24.9936 26.9883 25Z" fill="#808080" fill-opacity="0.3"/>
<path d="M14.9885 25.0696C13.884 25.076 12.9938 25.9766 13.0002 27.0812C13.0066 28.1857 13.9072 29.076 15.0118 29.0695C16.1163 29.0631 17.0065 28.1625 17.0001 27.058C16.9937 25.9534 16.0931 25.0632 14.9885 25.0696Z" fill="#808080" fill-opacity="0.3"/>
<path d="M2.98875 25.1392C1.8842 25.1457 0.993981 26.0463 1.00039 27.1508C1.0068 28.2554 1.90741 29.1456 3.01196 29.1392C4.11651 29.1328 5.00673 28.2322 5.00032 27.1276C4.99391 26.0231 4.0933 25.1328 2.98875 25.1392Z" fill="#808080" fill-opacity="0.3"/>
<path d="M39.0578 36.9301C37.9532 36.9366 37.063 37.8372 37.0694 38.9417C37.0758 40.0463 37.9764 40.9365 39.081 40.9301C40.1855 40.9237 41.0758 40.0231 41.0694 38.9185C41.0629 37.814 40.1623 36.9237 39.0578 36.9301Z" fill="#808080" fill-opacity="0.3"/>
<path d="M27.058 36.9998C25.9534 37.0062 25.0632 37.9068 25.0696 39.0113C25.076 40.1159 25.9766 41.0061 27.0812 40.9997C28.1857 40.9933 29.076 40.0927 29.0696 38.9881C29.0631 37.8836 28.1625 36.9934 27.058 36.9998Z" fill="#808080" fill-opacity="0.3"/>
<path d="M15.0582 37.0694C13.9536 37.0758 13.0634 37.9764 13.0698 39.081C13.0762 40.1855 13.9768 41.0758 15.0814 41.0693C16.1859 41.0629 17.0762 40.1623 17.0698 39.0578C17.0633 37.9532 16.1627 37.063 15.0582 37.0694Z" fill="#808080" fill-opacity="0.3"/>
<path d="M3.05839 37.139C1.95383 37.1455 1.06361 38.0461 1.07002 39.1506C1.07643 40.2552 1.97705 41.1454 3.0816 41.139C4.18615 41.1326 5.07637 40.232 5.06996 39.1274C5.06355 38.0229 4.16294 37.1326 3.05839 37.139Z" fill="#808080" fill-opacity="0.3"/>
<path d="M50.9183 12.8609C49.8138 12.8673 48.9235 13.7679 48.9299 14.8725C48.9364 15.977 49.837 16.8673 50.9415 16.8608C52.0461 16.8544 52.9363 15.9538 52.9299 14.8493C52.9235 13.7447 52.0229 12.8545 50.9183 12.8609Z" fill="#808080" fill-opacity="0.3"/>
<path d="M38.9185 12.9305C37.814 12.937 36.9237 13.8376 36.9302 14.9421C36.9366 16.0467 37.8372 16.9369 38.9417 16.9305C40.0463 16.9241 40.9365 16.0235 40.9301 14.9189C40.9237 13.8144 40.0231 12.9241 38.9185 12.9305Z" fill="#808080" fill-opacity="0.3"/>
<path d="M26.9187 13.0002C25.8142 13.0066 24.9239 13.9072 24.9304 15.0118C24.9368 16.1163 25.8374 17.0065 26.9419 17.0001C28.0465 16.9937 28.9367 16.0931 28.9303 14.9885C28.9239 13.884 28.0233 12.9938 26.9187 13.0002Z" fill="#808080" fill-opacity="0.3"/>
<path d="M14.9189 13.0698C13.8144 13.0762 12.9241 13.9768 12.9306 15.0814C12.937 16.1859 13.8376 17.0762 14.9421 17.0697C16.0467 17.0633 16.9369 16.1627 16.9305 15.0582C16.9241 13.9536 16.0235 13.0634 14.9189 13.0698Z" fill="#808080" fill-opacity="0.3"/>
<path d="M2.91912 13.1394C1.81457 13.1459 0.924346 14.0465 0.930756 15.151C0.937165 16.2556 1.83778 17.1458 2.94233 17.1394C4.04688 17.133 4.9371 16.2324 4.93069 15.1278C4.92428 14.0233 4.02367 13.133 2.91912 13.1394Z" fill="#808080" fill-opacity="0.3"/>
<path d="M50.8487 0.861113C49.7441 0.867522 48.8539 1.76813 48.8603 2.87268C48.8667 3.97724 49.7673 4.86746 50.8719 4.86105C51.9764 4.85464 52.8667 3.95402 52.8602 2.84947C52.8538 1.74492 51.9532 0.854703 50.8487 0.861113Z" fill="#808080" fill-opacity="0.3"/>
<path d="M38.8489 0.930747C37.7443 0.937157 36.8541 1.83777 36.8605 2.94232C36.8669 4.04687 37.7675 4.93709 38.8721 4.93068C39.9766 4.92427 40.8669 4.02366 40.8604 2.91911C40.854 1.81456 39.9534 0.924337 38.8489 0.930747Z" fill="#808080" fill-opacity="0.3"/>
<path d="M26.8491 1.00038C25.7445 1.00679 24.8543 1.9074 24.8607 3.01195C24.8671 4.1165 25.7677 5.00672 26.8723 5.00031C27.9768 4.9939 28.8671 4.09329 28.8607 2.98874C28.8542 1.88419 27.9536 0.993972 26.8491 1.00038Z" fill="#808080" fill-opacity="0.3"/>
<path d="M14.8493 1.07002C13.7447 1.07643 12.8545 1.97704 12.8609 3.08159C12.8673 4.18614 13.7679 5.07636 14.8725 5.06995C15.977 5.06354 16.8673 4.16293 16.8609 3.05838C16.8544 1.95383 15.9538 1.06361 14.8493 1.07002Z" fill="#808080" fill-opacity="0.3"/>
<path d="M2.84948 1.13965C1.74493 1.14606 0.854712 2.04667 0.861121 3.15122C0.867531 4.25577 1.76814 5.14599 2.87269 5.13958C3.97724 5.13317 4.86746 4.23256 4.86105 3.12801C4.85464 2.02346 3.95403 1.13324 2.84948 1.13965Z" fill="#808080" fill-opacity="0.3"/>
</svg>
