<svg width="54" height="53" viewBox="0 0 54 53" fill="none" xmlns="http://www.w3.org/2000/svg">
<path d="M49.0112 37.9793C49.0123 39.0839 49.9085 39.9785 51.0131 39.9774C52.1177 39.9764 53.0123 39.0801 53.0112 37.9756C53.0102 36.871 52.1139 35.9764 51.0094 35.9774C49.9048 35.9785 49.0102 36.8747 49.0112 37.9793Z" fill="#808080" fill-opacity="0.3"/>
<path d="M49.0224 49.9793C49.0235 51.0839 49.9197 51.9785 51.0243 51.9774C52.1289 51.9764 53.0235 51.0801 53.0224 49.9756C53.0214 48.871 52.1251 47.9764 51.0206 47.9774C49.916 47.9785 49.0214 48.8747 49.0224 49.9793Z" fill="#808080" fill-opacity="0.3"/>
<path d="M24.9888 14.0017C24.9898 15.1063 25.8861 16.0009 26.9907 15.9999C28.0952 15.9988 28.9898 15.1026 28.9888 13.998C28.9878 12.8934 28.0915 11.9988 26.9869 11.9999C25.8824 12.0009 24.9878 12.8972 24.9888 14.0017Z" fill="#808080" fill-opacity="0.3"/>
<path d="M25 26.0017C25.0011 27.1063 25.8973 28.0009 27.0019 27.9999C28.1065 27.9988 29.0011 27.1026 29 25.998C28.999 24.8934 28.1027 23.9988 26.9982 23.9999C25.8936 24.0009 24.999 24.8972 25 26.0017Z" fill="#808080" fill-opacity="0.3"/>
<path d="M25.0112 38.0017C25.0123 39.1063 25.9085 40.0009 27.0131 39.9999C28.1177 39.9988 29.0123 39.1026 29.0112 37.998C29.0102 36.8934 28.1139 35.9988 27.0094 35.9999C25.9048 36.0009 25.0102 36.8972 25.0112 38.0017Z" fill="#808080" fill-opacity="0.3"/>
<path d="M25.0225 50.0017C25.0235 51.1063 25.9198 52.0009 27.0243 51.9999C28.1289 51.9988 29.0235 51.1026 29.0224 49.998C29.0214 48.8934 28.1252 47.9988 27.0206 47.9999C25.916 48.0009 25.0214 48.8972 25.0225 50.0017Z" fill="#808080" fill-opacity="0.3"/>
<path d="M36.9888 13.9905C36.9898 15.0951 37.8861 15.9897 38.9907 15.9887C40.0952 15.9876 40.9898 15.0914 40.9888 13.9868C40.9878 12.8822 40.0915 11.9876 38.9869 11.9887C37.8824 11.9897 36.9878 12.886 36.9888 13.9905Z" fill="#808080" fill-opacity="0.3"/>
<path d="M37 25.9905C37.001 27.0951 37.8973 27.9897 39.0019 27.9887C40.1065 27.9876 41.001 27.0914 41 25.9868C40.999 24.8822 40.1027 23.9876 38.9981 23.9887C37.8936 23.9897 36.999 24.886 37 25.9905Z" fill="#808080" fill-opacity="0.3"/>
<path d="M37.0112 37.9905C37.0123 39.0951 37.9085 39.9897 39.0131 39.9887C40.1177 39.9876 41.0123 39.0914 41.0112 37.9868C41.0102 36.8822 40.1139 35.9876 39.0094 35.9887C37.9048 35.9897 37.0102 36.886 37.0112 37.9905Z" fill="#808080" fill-opacity="0.3"/>
<path d="M37.0224 49.9905C37.0235 51.0951 37.9197 51.9897 39.0243 51.9886C40.1289 51.9876 41.0235 51.0913 41.0224 49.9868C41.0214 48.8822 40.1251 47.9876 39.0206 47.9886C37.916 47.9897 37.0214 48.8859 37.0224 49.9905Z" fill="#808080" fill-opacity="0.3"/>
<path d="M12.9776 2.01297C12.9786 3.11754 13.8749 4.01213 14.9795 4.0111C16.084 4.01007 16.9786 3.1138 16.9776 2.00923C16.9766 0.904662 16.0803 0.0100684 14.9757 0.0111007C13.8712 0.012133 12.9766 0.9084 12.9776 2.01297Z" fill="#808080" fill-opacity="0.3"/>
<path d="M12.9888 14.013C12.9898 15.1175 13.8861 16.0121 14.9907 16.0111C16.0952 16.0101 16.9898 15.1138 16.9888 14.0092C16.9878 12.9047 16.0915 12.0101 14.9869 12.0111C13.8824 12.0121 12.9878 12.9084 12.9888 14.013Z" fill="#808080" fill-opacity="0.3"/>
<path d="M13 26.013C13.0011 27.1175 13.8973 28.0121 15.0019 28.0111C16.1065 28.0101 17.0011 27.1138 17 26.0092C16.999 24.9047 16.1027 24.0101 14.9982 24.0111C13.8936 24.0121 12.999 24.9084 13 26.013Z" fill="#808080" fill-opacity="0.3"/>
<path d="M13.0112 38.013C13.0123 39.1175 13.9085 40.0121 15.0131 40.0111C16.1177 40.01 17.0123 39.1138 17.0112 38.0092C17.0102 36.9046 16.1139 36.0101 15.0094 36.0111C13.9048 36.0121 13.0102 36.9084 13.0112 38.013Z" fill="#808080" fill-opacity="0.3"/>
<path d="M13.0225 50.0129C13.0235 51.1175 13.9198 52.0121 15.0243 52.0111C16.1289 52.01 17.0235 51.1138 17.0225 50.0092C17.0214 48.9046 16.1252 48.01 15.0206 48.0111C13.916 48.0121 13.0214 48.9084 13.0225 50.0129Z" fill="#808080" fill-opacity="0.3"/>
<path d="M0.977602 2.02418C0.978634 3.12875 1.8749 4.02335 2.97947 4.02231C4.08404 4.02128 4.97863 3.12501 4.9776 2.02045C4.97657 0.915877 4.0803 0.0212836 2.97573 0.0223159C1.87116 0.0233482 0.97657 0.919615 0.977602 2.02418Z" fill="#808080" fill-opacity="0.3"/>
<path d="M0.988817 14.0242C0.98985 15.1287 1.88612 16.0233 2.99069 16.0223C4.09525 16.0213 4.98985 15.125 4.98882 14.0204C4.98778 12.9159 4.09152 12.0213 2.98695 12.0223C1.88238 12.0233 0.987785 12.9196 0.988817 14.0242Z" fill="#808080" fill-opacity="0.3"/>
<path d="M1.00003 26.0242C1.00106 27.1287 1.89733 28.0233 3.0019 28.0223C4.10647 28.0213 5.00106 27.125 5.00003 26.0204C4.999 24.9159 4.10273 24.0213 2.99816 24.0223C1.89359 24.0233 0.999 24.9196 1.00003 26.0242Z" fill="#808080" fill-opacity="0.3"/>
<path d="M1.01125 38.0242C1.01228 39.1287 1.90855 40.0233 3.01312 40.0223C4.11768 40.0213 5.01228 39.125 5.01125 38.0204C5.01021 36.9159 4.11395 36.0213 3.00938 36.0223C1.90481 36.0233 1.01022 36.9196 1.01125 38.0242Z" fill="#808080" fill-opacity="0.3"/>
<path d="M1.02246 50.0242C1.0235 51.1287 1.91976 52.0233 3.02433 52.0223C4.1289 52.0213 5.02349 51.125 5.02246 50.0204C5.02143 48.9159 4.12516 48.0213 3.02059 48.0223C1.91602 48.0233 1.02143 48.9196 1.02246 50.0242Z" fill="#808080" fill-opacity="0.3"/>
</svg>
