<svg width="207" height="41" viewBox="0 0 207 41" fill="none" xmlns="http://www.w3.org/2000/svg">
<path fill-rule="evenodd" clip-rule="evenodd" d="M12.945 36.1485C12.8121 36.1473 12.6813 36.1157 12.5626 36.056C12.4438 35.9964 12.3403 35.9104 12.26 35.8045C12.0319 35.5013 11.8778 35.1489 11.81 34.7755C11.7016 34.3002 11.6181 33.8196 11.56 33.3355C11.4909 32.7122 11.4555 32.0856 11.454 31.4585C11.4334 30.0806 11.4381 28.7023 11.468 27.3245C11.486 26.4785 11.494 25.8185 11.494 25.3425V9.59053C11.494 8.81453 11.499 8.22453 11.508 7.81953C11.517 7.41453 11.548 6.95653 11.599 6.44553C11.629 6.06553 11.695 5.68953 11.798 5.32253C11.898 5.03953 12.031 4.76953 12.193 4.51653C12.343 4.25153 12.561 4.03253 12.826 3.88253C13.134 3.72853 13.451 3.59253 13.775 3.47253C14.1925 3.31734 14.6252 3.20673 15.066 3.14253C15.6403 3.05869 16.2165 2.988 16.794 2.93053V1.47553L16.344 1.02553H0.422L0 1.47553V2.71753C2.672 2.87653 4.166 3.63453 4.482 4.99053C4.666 6.13553 4.754 7.29353 4.746 8.45253V32.5795C4.79021 33.8328 4.73705 35.0875 4.587 36.3325C4.514 36.5265 4.407 36.7045 4.271 36.8605C4.06737 37.1041 3.85212 37.3377 3.626 37.5605C3.44685 37.7336 3.27535 37.9145 3.112 38.1025V39.0275C16.699 39.0275 25.109 39.1155 28.342 39.2925L29.477 35.4605L28.765 34.9575C23.515 35.6185 18.235 36.0155 12.946 36.1475L12.945 36.1485ZM38.201 25.1025C38.1494 25.117 38.0965 25.1257 38.043 25.1285C37.78 25.1285 37.648 25.0325 37.648 24.8385C37.649 23.9625 37.715 23.0875 37.846 22.2215C37.994 21.2775 38.241 20.3515 38.584 19.4605C38.9145 18.5571 39.3678 17.7034 39.931 16.9235C40.5279 16.1301 41.3031 15.4883 42.1939 15.0498C43.0847 14.6114 44.0662 14.3886 45.059 14.3995C45.7755 14.3598 46.4899 14.507 47.1323 14.8268C47.7747 15.1466 48.3228 15.6279 48.723 16.2235C49.5542 17.4554 49.987 18.9127 49.963 20.3985C49.9595 20.6709 49.873 20.9357 49.715 21.1576C49.5571 21.3795 49.3352 21.548 49.079 21.6405C47.6353 22.2223 46.1612 22.7254 44.663 23.1475C42.5559 23.7676 40.4558 24.4109 38.363 25.0775C38.3082 25.0798 38.2539 25.0882 38.201 25.1025ZM53.861 33.3475C50.696 35.2675 47.963 36.2275 45.663 36.2275C44.1049 36.2614 42.5749 35.8087 41.286 34.9325C40.087 34.1279 39.1336 33.0077 38.531 31.6955C37.9377 30.3797 37.6364 28.9509 37.648 27.5075C49.143 23.9315 54.943 22.1425 55.048 22.1425C55.5045 22.0491 55.9124 21.7952 56.1977 21.4268C56.483 21.0584 56.6268 20.5999 56.603 20.1345C56.6343 18.8372 56.3301 17.5538 55.72 16.4085C55.1628 15.3842 54.3382 14.5302 53.334 13.9375C52.3208 13.3428 51.2229 12.9061 50.078 12.6425C48.8362 12.3614 47.5662 12.2238 46.293 12.2325C44.009 12.1971 41.744 12.6524 39.651 13.5675C37.8056 14.3646 36.1751 15.5873 34.893 17.1355C33.6842 18.6326 32.7513 20.3327 32.138 22.1565C31.502 24.0331 31.181 26.0021 31.188 27.9835C31.188 32.0535 32.288 35.1015 34.484 37.1275C36.47 38.9775 39.274 39.9015 42.894 39.9015C44.9696 39.8802 47.0126 39.3832 48.866 38.4485C51.0979 37.3369 53.2359 36.046 55.259 34.5885L54.682 33.5605L53.861 33.3475ZM89.37 5.48253C88.6636 3.63731 87.2763 2.13335 85.494 1.28053C83.2862 0.351677 80.9014 -0.0811772 78.508 0.0125284C76.7614 0.00250957 75.0206 0.215566 73.328 0.646528C71.7535 1.04744 70.2504 1.68935 68.872 2.54953C67.5219 3.40067 66.4177 4.58999 65.669 5.99953C64.8563 7.5413 64.4479 9.264 64.482 11.0065C64.4811 12.2539 64.7842 13.4827 65.365 14.5865C65.9198 15.679 66.6706 16.6603 67.58 17.4815C68.558 18.3442 69.5974 19.1346 70.69 19.8465C71.7867 20.5772 72.9223 21.2475 74.092 21.8545C75.1916 22.4197 76.2731 23.0194 77.335 23.6525C78.215 24.1505 79.041 24.7395 79.8 25.4095C81.75 27.2245 82.726 28.9505 82.726 30.5895C82.7224 31.4601 82.5404 32.3208 82.1913 33.1183C81.8421 33.9158 81.3332 34.6333 80.696 35.2265C80.0634 35.8777 79.3046 36.3928 78.466 36.7405C77.6274 37.0882 76.7267 37.2611 75.819 37.2485C74.7576 37.279 73.7033 37.0662 72.7369 36.6265C71.7704 36.1868 70.9173 35.5317 70.243 34.7115C68.8437 33.1092 68.0796 31.0498 68.095 28.9225L67.068 28.5525L61.822 34.4455C63.0209 36.1807 64.6464 37.5779 66.542 38.5025C68.4694 39.4481 70.5902 39.9325 72.737 39.9175C74.6958 39.9077 76.6421 39.6043 78.511 39.0175C80.3905 38.4517 82.1827 37.6289 83.837 36.5725C85.4096 35.5683 86.7451 34.2341 87.751 32.6625C88.7369 31.1681 89.2639 29.4178 89.267 27.6275C89.2749 26.6668 89.1054 25.7128 88.767 24.8135C88.454 23.9785 88.0185 23.1946 87.475 22.4875C86.8352 21.7026 86.0948 21.0053 85.273 20.4135C84.3751 19.7364 83.4374 19.1136 82.465 18.5485C81.3011 17.8854 80.1235 17.2466 78.933 16.6325C78.1029 16.2301 77.2852 15.8026 76.481 15.3505C75.7205 14.9061 74.9804 14.4276 74.263 13.9165C73.5275 13.4123 72.8553 12.8214 72.261 12.1565C71.7387 11.536 71.312 10.841 70.995 10.0945C70.6431 9.29068 70.4636 8.42201 70.468 7.54453C70.4518 6.82688 70.5797 6.11327 70.8443 5.44595C71.1088 4.77863 71.5045 4.17117 72.008 3.65953C72.5401 3.12768 73.1769 2.71217 73.8781 2.43932C74.5792 2.16648 75.3293 2.04226 76.081 2.07453C77.0121 2.03432 77.9405 2.20058 78.7997 2.56139C79.659 2.92221 80.4278 3.46864 81.051 4.16153C82.2997 5.57484 83.0863 7.33631 83.305 9.20953L84.228 9.49953L89.37 5.48253ZM115.008 15.6175C114.537 14.7927 113.855 14.1085 113.031 13.6355C112.216 13.1697 111.336 12.827 110.421 12.6185C109.439 12.4007 108.435 12.2944 107.429 12.3015C105.51 12.2745 103.602 12.6015 101.8 13.2665C100.254 13.8279 98.8378 14.6952 97.635 15.8165C96.5172 16.8994 95.5902 18.1632 94.893 19.5545C94.1763 20.9542 93.6487 22.4429 93.324 23.9815C93.0037 25.5377 92.8449 27.1228 92.85 28.7115C92.844 30.0615 93.035 31.4055 93.416 32.6995C93.786 33.9525 94.361 35.1355 95.116 36.2015C95.9121 37.301 96.9799 38.1752 98.215 38.7385C99.633 39.3865 101.178 39.7075 102.736 39.6765C107.675 39.6765 112.315 37.5005 116.656 33.1495L116.129 32.3825L115.47 32.2245C112.254 34.7085 109.283 35.9505 106.559 35.9505C105.539 35.967 104.531 35.7357 103.62 35.2765C102.794 34.8666 102.076 34.2698 101.521 33.5335C100.97 32.7767 100.522 31.9501 100.189 31.0755C99.8429 30.2022 99.5911 29.2944 99.438 28.3675C99.298 27.4935 99.228 26.6095 99.227 25.7245C99.233 24.5995 99.33 23.4775 99.517 22.3685C99.724 21.1335 100.033 19.9185 100.44 18.7345C100.81 17.5774 101.452 16.526 102.312 15.6685C102.691 15.2848 103.142 14.9808 103.64 14.7743C104.139 14.5679 104.673 14.4632 105.212 14.4665C105.932 14.4268 106.65 14.5888 107.283 14.9344C107.916 15.2799 108.441 15.7953 108.797 16.4225C109.612 17.8912 110.013 19.5537 109.957 21.2325L110.88 21.6025L115.863 18.6435C115.822 17.5813 115.529 16.5441 115.008 15.6175ZM124.671 23.4795C124.805 22.4415 125.039 21.4195 125.37 20.4275C125.673 19.4625 126.103 18.5435 126.648 17.6925C127.172 16.9042 127.872 16.2483 128.692 15.7765C129.577 15.2658 130.584 15.0055 131.605 15.0235C132.713 14.9953 133.806 15.284 134.755 15.8555C135.637 16.4048 136.346 17.193 136.798 18.1285C137.275 19.0955 137.62 20.1215 137.825 21.1805C138.042 22.3205 138.149 23.4805 138.142 24.6425C138.142 25.6995 138.133 26.5805 138.115 27.2845C138.087 28.1326 138.026 28.9793 137.931 29.8225C137.853 30.6525 137.708 31.4735 137.496 32.2795C137.289 32.9895 137.02 33.6795 136.692 34.3415C136.39 34.9968 135.954 35.5817 135.413 36.0585C134.854 36.515 134.221 36.8725 133.541 37.1155C132.717 37.4104 131.846 37.5537 130.971 37.5385C130.007 37.5503 129.063 37.2639 128.268 36.7185C127.493 36.1991 126.848 35.5074 126.384 34.6975C125.897 33.8259 125.516 32.8989 125.25 31.9365C124.97 30.9895 124.767 30.0213 124.643 29.0415C124.541 28.1953 124.488 27.3439 124.485 26.4915C124.484 25.4846 124.547 24.4787 124.671 23.4795ZM121.402 37.1425C123.317 38.8865 126.358 39.7585 130.524 39.7585C132.064 39.7685 133.6 39.5915 135.098 39.2295C136.507 38.8792 137.85 38.3038 139.076 37.5255C140.308 36.7482 141.385 35.7489 142.253 34.5785C143.202 33.2514 143.907 31.7659 144.336 30.1915C144.868 28.2823 145.125 26.3072 145.101 24.3255C145.152 22.73 144.856 21.1424 144.232 19.6729C143.608 18.2034 142.672 16.8872 141.489 15.8155C139.291 13.8435 136.101 12.8565 131.919 12.8565C127.736 12.8565 124.291 14.1515 121.584 16.7415C120.255 17.9976 119.206 19.5203 118.507 21.2098C117.807 22.8993 117.472 24.7176 117.524 26.5455C117.524 31.2675 118.815 34.7995 121.399 37.1425H121.402ZM162.66 16.2125C164.066 16.2125 165.068 16.4945 165.666 17.0585C166.223 17.7385 166.575 18.5645 166.68 19.4385C166.901 20.4685 167.038 21.5165 167.089 22.5695C167.124 23.4945 167.142 24.6885 167.142 26.1505C167.141 28.0489 167.128 29.9473 167.103 31.8455C167.094 32.4175 167.098 33.0915 167.115 33.8675C167.12 34.4455 167.155 35.0235 167.221 35.5975C167.274 35.9775 167.344 36.3915 167.432 36.8395C167.493 37.2155 167.618 37.5765 167.801 37.9095C167.959 38.1745 168.153 38.4155 168.379 38.6245C169.17 39.3422 170.211 39.7213 171.278 39.6805C172.597 39.6805 174.108 39.0105 175.813 37.6725C177.236 36.4892 178.591 35.2272 179.873 33.8925L179.267 32.9925H178.634C177.603 33.8197 176.342 34.309 175.023 34.3935C174.744 34.4095 174.464 34.3686 174.201 34.2732C173.938 34.1778 173.697 34.0299 173.493 33.8385C173.311 33.6947 173.155 33.5208 173.031 33.3245C172.886 32.9788 172.793 32.6135 172.755 32.2405C172.654 31.4829 172.61 30.7188 172.623 29.9545C172.623 29.3735 172.654 28.4345 172.715 27.1405C172.764 26.2206 172.795 25.2997 172.808 24.3785V22.7925C172.825 21.0835 172.821 19.8995 172.795 19.2375C172.742 18.3344 172.641 17.4347 172.491 16.5425C172.425 15.7013 172.144 14.8912 171.674 14.1905C171.21 13.6871 170.655 13.275 170.039 12.9755C169.202 12.5706 168.279 12.3753 167.35 12.4065C164.257 12.4065 160.671 13.6755 156.594 16.2125L155.961 15.9745C155.927 15.0028 155.611 14.062 155.052 13.2665C154.533 12.5865 153.641 12.2485 152.376 12.2485C151.618 12.2581 150.866 12.3873 150.148 12.6315C149.313 12.9115 148.516 13.2935 147.774 13.7675C146.974 14.2705 146.28 14.7375 145.691 15.1685C145.102 15.5995 144.421 16.1235 143.648 16.7405L144.623 18.0355C144.802 17.9195 144.983 17.8052 145.164 17.6925C145.471 17.4985 145.739 17.3405 145.968 17.2165C146.196 17.0935 146.469 16.9485 146.785 16.7805C147.068 16.6265 147.364 16.4975 147.669 16.3945C147.902 16.3145 148.146 16.2695 148.393 16.2625C148.698 16.2555 148.999 16.3325 149.263 16.4875C149.531 16.6645 149.733 16.9245 149.841 17.2275C149.973 17.5475 150.087 17.8725 150.183 18.2045C150.291 18.6515 150.353 19.1075 150.368 19.5665C150.404 20.1665 150.425 20.6505 150.432 21.0195C150.44 21.3885 150.444 21.9435 150.445 22.6845V23.1345C150.445 24.8605 150.313 30.1455 150.05 38.9895L150.709 39.3595L156.641 37.6415C156.465 36.8845 156.333 34.4975 156.245 30.4815C156.158 26.5531 156.115 22.6239 156.117 18.6945C159.175 17.0385 161.354 16.2105 162.655 16.2105L162.66 16.2125ZM188.233 25.2225C188.182 25.2379 188.129 25.2473 188.075 25.2505C187.812 25.2505 187.68 25.1535 187.679 24.9605C187.68 24.0835 187.746 23.2095 187.878 22.3435C188.026 21.3995 188.273 20.4735 188.615 19.5815C188.946 18.6785 189.398 17.8245 189.96 17.0445C190.557 16.2509 191.332 15.6089 192.223 15.1704C193.114 14.7319 194.095 14.5093 195.088 14.5205C195.804 14.4807 196.519 14.6279 197.161 14.9477C197.804 15.2675 198.352 15.7488 198.752 16.3445C199.583 17.5763 200.016 19.0337 199.991 20.5195C199.987 20.7917 199.901 21.0562 199.743 21.278C199.585 21.4998 199.364 21.6685 199.108 21.7615C197.665 22.343 196.191 22.8461 194.693 23.2685C192.586 23.8884 190.485 24.5318 188.392 25.1985C188.339 25.2014 188.286 25.2098 188.234 25.2235L188.233 25.2225ZM203.893 33.4685C200.728 35.3895 197.995 36.3495 195.694 36.3485C194.136 36.3821 192.606 35.9299 191.317 35.0545C190.118 34.2497 189.165 33.1295 188.563 31.8175C187.969 30.5011 187.668 29.0717 187.679 27.6275C199.174 24.0525 204.974 22.2645 205.08 22.2645C205.536 22.1707 205.944 21.9165 206.23 21.548C206.515 21.1795 206.659 20.721 206.635 20.2555C206.666 18.9582 206.362 17.6749 205.752 16.5295C205.195 15.5052 204.37 14.6512 203.366 14.0585C202.353 13.4641 201.255 13.0274 200.11 12.7635C198.868 12.4823 197.598 12.3447 196.324 12.3535C194.041 12.3183 191.776 12.7736 189.684 13.6885C187.839 14.4856 186.208 15.7083 184.926 17.2565C183.717 18.7533 182.784 20.4536 182.171 22.2775C181.535 24.1541 181.214 26.1231 181.222 28.1045C181.222 32.1745 182.32 35.2215 184.517 37.2485C186.503 39.0985 189.306 40.0225 192.927 40.0225C195.003 40.0012 197.046 39.5041 198.899 38.5695C201.131 37.4577 203.269 36.1672 205.292 34.7105L204.715 33.6815L203.893 33.4685Z" fill="#9C9C9C"/>
</svg>
