<svg width="136" height="29" viewBox="0 0 136 29" fill="none" xmlns="http://www.w3.org/2000/svg">
<path d="M5.13273 11.3486C5.79265 10.4041 6.69699 9.63672 7.84574 9.0464C9.01894 8.45609 10.351 8.16093 11.8419 8.16093C13.5773 8.16093 15.1415 8.57415 16.5347 9.40059C17.9523 10.227 19.0644 11.4077 19.871 12.9425C20.702 14.4537 21.1175 16.2128 21.1175 18.2199C21.1175 20.227 20.702 22.0098 19.871 23.5682C19.0644 25.103 17.9523 26.2955 16.5347 27.1455C15.1415 27.9956 13.5773 28.4206 11.8419 28.4206C10.3266 28.4206 8.9945 28.1372 7.84574 27.5705C6.72143 26.9802 5.81709 26.2246 5.13273 25.3037V28.1018H0V1.89177H5.13273V11.3486ZM15.8748 18.2199C15.8748 17.0393 15.6182 16.0239 15.1049 15.1739C14.6161 14.3002 13.9561 13.6391 13.1251 13.1904C12.323 12.7429 11.4117 12.5106 10.4854 12.5175C9.55665 12.5175 8.67675 12.7536 7.84574 13.2258C7.03917 13.6745 6.37925 14.3356 5.86598 15.2093C5.37714 16.083 5.13273 17.1101 5.13273 18.2908C5.13273 19.4714 5.37714 20.4985 5.86598 21.3722C6.37925 22.2459 7.03917 22.9188 7.84574 23.3911C8.67675 23.8397 9.55665 24.0641 10.4854 24.0641C11.4387 24.0641 12.3185 23.8279 13.1251 23.3557C13.9561 22.8834 14.6161 22.2105 15.1049 21.3368C15.6182 20.4631 15.8748 19.4242 15.8748 18.2199ZM27.4499 6.14205C26.5456 6.14205 25.7879 5.8705 25.1768 5.32741C24.5903 4.76071 24.297 4.06413 24.297 3.23769C24.297 2.41125 24.5903 1.72648 25.1768 1.18339C25.7879 0.616684 26.5456 0.333332 27.4499 0.333332C28.3543 0.333332 29.0997 0.616684 29.6863 1.18339C30.2974 1.72648 30.6029 2.41125 30.6029 3.23769C30.6029 4.06413 30.2974 4.76071 29.6863 5.32741C29.0997 5.8705 28.3543 6.14205 27.4499 6.14205ZM29.9796 8.4797V28.1018H24.8469V8.4797H29.9796ZM47.0765 28.1018L40.184 19.7429V28.1018H35.0512V1.89177H40.184V16.8032L47.0032 8.4797H53.6757L44.7301 18.3262L53.749 28.1018H47.0765ZM54.1228 18.2908C54.1228 16.2601 54.5505 14.4891 55.406 12.9779C56.2614 11.4431 57.4468 10.2625 58.9622 9.43601C60.4776 8.58596 62.2129 8.16093 64.1683 8.16093C66.6858 8.16093 68.7633 8.77486 70.4009 10.0027C72.0629 11.207 73.175 12.9071 73.7371 15.103H68.2021C67.9089 14.253 67.4078 13.5918 66.699 13.1196C66.0146 12.6237 65.1592 12.3758 64.1326 12.3758C62.6661 12.3758 61.5052 12.8953 60.6497 13.9342C59.7943 14.9496 59.3665 16.4017 59.3665 18.2908C59.3665 20.1562 59.7943 21.6083 60.6497 22.6473C61.5052 23.6626 62.6661 24.1703 64.1326 24.1703C66.2102 24.1703 67.5667 23.273 68.2021 21.4785H73.7382C73.176 23.6036 72.0639 25.2919 70.4019 26.5434C68.7399 27.7949 66.6623 28.4206 64.1693 28.4206C62.214 28.4206 60.4786 28.0074 58.9632 27.1809C57.4599 26.3429 56.2283 25.1163 55.407 23.639C54.5515 22.1042 54.1238 20.3214 54.1238 18.2908H54.1228ZM81.6124 11.5257C82.2418 10.5158 83.1244 9.67529 84.1788 9.08182C85.2542 8.49151 86.4763 8.19635 87.845 8.19635V13.4029H86.4885C84.8754 13.4029 83.6533 13.7689 82.8223 14.5009C82.0157 15.2329 81.6124 16.508 81.6124 18.3262V28.1018H76.4797V8.4797H81.6124V11.5257ZM103.583 25.3037C103.021 26.201 102.105 26.9566 100.834 27.5705C99.5627 28.1609 98.194 28.456 96.7275 28.456C95.4565 28.456 94.3078 28.2081 93.2812 27.7122C92.2547 27.2163 91.4481 26.5316 90.8615 25.6579C90.2749 24.7842 89.9816 23.7807 89.9816 22.6473C89.9816 20.8291 90.6782 19.3415 92.0714 18.1845C93.489 17.0275 95.6032 16.449 98.414 16.449H103.583C103.534 15.1975 103.156 14.2058 102.447 13.4738C101.762 12.7182 100.809 12.3404 99.5872 12.3404C98.5117 12.3404 97.6196 12.6237 96.9108 13.1904C96.202 13.7335 95.7498 14.5009 95.5543 15.4927H90.4216C90.666 14.0759 91.1915 12.8126 91.998 11.7028C92.8218 10.5753 93.9332 9.67243 95.2243 9.08182C96.5686 8.44428 98.0718 8.12551 99.7338 8.12551C101.445 8.12551 102.985 8.46789 104.353 9.15266C105.713 9.80683 106.846 10.8281 107.616 12.0924C108.398 13.3675 108.789 14.8669 108.789 16.5906V28.1018H103.583V25.3037ZM98.2307 24.4537C99.0861 24.4537 99.9171 24.2766 100.724 23.9224C101.555 23.5682 102.239 23.0369 102.777 22.3285C103.314 21.6201 103.583 20.7819 103.583 19.8138V19.6721H98.7073C97.5341 19.6721 96.6542 19.8964 96.0676 20.3451C95.5054 20.7937 95.2243 21.384 95.2243 22.116C95.2243 22.8244 95.481 23.3911 95.9942 23.8161C96.532 24.2411 97.2774 24.4537 98.2307 24.4537ZM119.614 12.5529V28.1018H114.408V12.5529H112.098V8.4797H114.408V7.48797C114.408 5.07948 115.117 3.30853 116.534 2.17512C117.952 1.04171 120.091 0.510427 122.95 0.581265V4.76071C121.704 4.73709 120.836 4.9378 120.347 5.36283C119.858 5.78786 119.614 6.55527 119.614 7.66506V8.4797H126.284V3.6273H131.454V8.4797H136V12.5529H131.454V22.0452C131.454 22.7063 131.613 23.1904 131.93 23.4974C132.273 23.7807 132.835 23.9224 133.617 23.9224H136V28.1018H132.774C128.448 28.1018 126.284 26.0711 126.284 22.0098V12.5529H119.614Z" fill="white"/>
</svg>
